<svg width="212" height="52" viewBox="0 0 212 52" fill="none" xmlns="http://www.w3.org/2000/svg">
<path d="M57.5645 21.6501C55.4089 11.2718 45.6505 4.91805 41.0407 3.03845C45.2698 12.8528 38.2034 19.4195 38.2034 19.4195C38.2034 19.4195 32.7516 25.5401 35.848 31.5358C38.9443 37.5315 43.5567 38.0133 46.6081 38.0133C49.6595 38.0133 60.259 34.6229 57.5645 21.6501Z" fill="#FFAD00"/>
<path d="M27.3353 0.308235C19.8375 1.86333 17.1997 6.6965 14.8086 9.73003C21.3753 10.3011 25.533 14.5658 25.533 14.5658C25.533 14.5658 30.3511 18.3616 34.6827 16.1278C39.0143 13.894 39.3624 10.5665 39.3624 8.36521C39.3624 6.16388 36.7075 -1.63563 27.3353 0.308235Z" fill="#FFAD00"/>
<path d="M9.1352 38.9969C10.7035 43.076 13.6683 44.1152 15.5972 45.1817C15.312 41.4306 17.3291 38.6951 17.3291 38.6951C17.3291 38.6951 19.021 35.631 17.3632 33.3977C15.7054 31.1645 13.7997 31.2758 12.5603 31.4791C11.3209 31.6824 7.17489 33.898 9.1352 38.9969Z" fill="#FFAD00"/>
<path d="M22.1028 49.967C25.3652 50.4746 27.162 48.9229 28.5867 48.0603C26.0221 46.8354 24.9894 44.4841 24.9894 44.4841C24.9894 44.4841 23.6191 42.2221 21.5322 42.468C19.4452 42.7138 18.8008 44.0044 18.4675 44.8931C18.1341 45.7818 18.0249 49.3326 22.1028 49.967Z" fill="#033383"/>
<path d="M6.82521 17.9728C3.95681 24.0389 5.94627 28.4347 6.80684 31.7083C10.6714 27.4154 15.8491 26.757 15.8491 26.757C15.8491 26.757 21.047 25.3891 21.7699 21.18C22.4928 16.9708 20.3485 14.9715 18.8084 13.8099C17.2683 12.6483 10.4107 10.3901 6.82521 17.9728Z" fill="#033485"/>
<circle cx="33.8679" cy="48.4701" r="2.53389" fill="#033383"/>
<path d="M85.384 39.099V28.671H73.306V24.942H85.384V15.009H89.575V39.099H85.384ZM66.079 39.099V15.009H70.27V39.099H66.079ZM118.743 39L115.146 32.961H103.794L105.774 29.562H113.133L107.787 20.586L96.8974 39H92.1124L105.906 16.032C106.148 15.614 106.434 15.284 106.764 15.042C107.094 14.8 107.49 14.679 107.952 14.679C108.414 14.679 108.799 14.8 109.107 15.042C109.437 15.284 109.723 15.614 109.965 16.032L123.792 39H118.743ZM126.342 39V15.009H143.898C145.064 15.009 146.12 15.141 147.066 15.405C148.034 15.669 148.859 16.065 149.541 16.593C150.223 17.099 150.751 17.748 151.125 18.54C151.499 19.31 151.686 20.201 151.686 21.213C151.686 21.983 151.598 22.654 151.422 23.226C151.246 23.798 151.004 24.293 150.696 24.711C150.388 25.107 150.025 25.448 149.607 25.734C149.211 25.998 148.793 26.196 148.353 26.328C149.453 26.68 150.355 27.318 151.059 28.242C151.763 29.166 152.115 30.332 152.115 31.74C152.115 32.84 151.928 33.841 151.554 34.743C151.202 35.623 150.685 36.382 150.003 37.02C149.343 37.658 148.529 38.153 147.561 38.505C146.615 38.835 145.559 39 144.393 39H126.342ZM133.569 28.572V25.041H143.931C145.119 25.041 145.999 24.821 146.571 24.381C147.143 23.941 147.429 23.193 147.429 22.137C147.429 21.499 147.308 20.993 147.066 20.619C146.824 20.223 146.472 19.926 146.01 19.728C145.57 19.508 145.031 19.365 144.393 19.299C143.777 19.233 143.084 19.2 142.314 19.2H130.533V34.842H142.677C143.425 34.842 144.118 34.787 144.756 34.677C145.394 34.567 145.944 34.391 146.406 34.149C146.868 33.885 147.22 33.555 147.462 33.159C147.726 32.763 147.858 32.268 147.858 31.674C147.858 30.684 147.55 29.925 146.934 29.397C146.318 28.847 145.416 28.572 144.228 28.572H133.569ZM155.766 39V15.009H177.183V19.2H159.924V34.809H177.216V39H155.766ZM162.993 28.572V25.041H176.292V28.572H162.993ZM203.081 39L197.009 32.334H188.033V28.638H198.032C199.55 28.638 200.694 28.231 201.464 27.417C202.234 26.581 202.619 25.382 202.619 23.82C202.619 22.258 202.212 21.103 201.398 20.355C200.606 19.585 199.484 19.2 198.032 19.2H184.964V39H180.806V15.009H198.032C199.396 15.009 200.617 15.218 201.695 15.636C202.773 16.032 203.686 16.615 204.434 17.385C205.182 18.133 205.754 19.046 206.15 20.124C206.546 21.202 206.744 22.412 206.744 23.754C206.744 25.756 206.304 27.439 205.424 28.803C204.566 30.145 203.356 31.113 201.794 31.707L209.021 39H203.081Z" fill="#033383"/>
</svg>
